<svg width="344.595" height="286.745" viewBox="0 0 91.174 75.868" xmlns="http://www.w3.org/2000/svg">
  <ellipse transform="translate(-219.819 -96.933)" cx="265.05" cy="134.87" rx="38.811" ry="37.934" fill="#00d782" paint-order="stroke fill markers"/>
  <g transform="translate(-219.82 -96.932)">
    <ellipse cx="232.19" cy="153.96" rx="3.428" ry="2.333" fill="#00d782" paint-order="stroke fill markers"/>
    <path d="M232.57 149.93l1.02.54.577-.679-2.463-1.132z" fill="#4ce0a6"/>
    <g fill="#fff" color="#000">
      <path d="M266.31 113.04a31.54 31.54 0 00-.197.904l1.763.356c.057-.282.121-.566.188-.854zm-.373 1.795c-.059.305-.113.61-.162.914l1.777.287c.047-.288.098-.575.153-.86zm-.305 1.822l-.076.551-.045.352 1.785.226.043-.34.077-.54zm-.226 1.819l-.043.406-.045.5 1.793.162.045-.488.039-.397zm-.157 1.822c-.02.305-.038.614-.05.926l1.798.07c.012-.288.027-.578.047-.871zm-.084 1.832c-.01.312-.013.62-.013.926l1.8.004c.001-.295.004-.586.012-.873zm1.791 1.81l-1.8.036.01.476.013.434 1.8-.057-.015-.422zm.063 1.768l-1.797.098c.016.303.035.611.06.924l1.794-.149a30.63 30.63 0 01-.057-.873zm.135 1.762l-1.793.164c.028.31.06.617.097.922l1.788-.217a29.044 29.044 0 01-.092-.87zm.203 1.742l-1.781.256.068.473.066.427 1.778-.277-.065-.418zm.28 1.746l-1.772.317c.053.3.111.603.175.91l1.762-.37c-.059-.28-.114-.567-.166-.857zm.353 1.73l-1.76.385c.067.306.14.607.215.903l1.746-.44c-.072-.286-.14-.567-.201-.847zm.422 1.7l-1.737.478.11.395.14.482 1.729-.5-.137-.47zm.501 1.695l-1.718.54c.092.295.19.59.293.882l1.699-.596c-.096-.273-.187-.549-.274-.826zm.569 1.654l-1.686.635.178.469.15.383 1.676-.657-.146-.37zm.65 1.643l-1.66.695c.118.283.242.569.373.854l1.635-.752c-.12-.26-.234-.526-.348-.797zm.725 1.605l-1.63.768c.136.286.276.563.413.832l1.604-.818a28.065 28.065 0 01-.387-.781zm.795 1.561l-1.584.854c.144.267.292.54.45.812l1.556-.906c-.143-.246-.282-.5-.422-.76zm.875 1.527l-1.547.922c.162.272.327.533.492.79l1.514-.973c-.16-.249-.314-.495-.46-.739zM263.36 112.36l-.084.336 1.748.434.084-.336zm-.307 1.191c-.076.285-.154.568-.236.85l1.729.5c.085-.294.167-.588.246-.883zm-.488 1.702a52.71 52.71 0 01-.264.843l1.713.553c.095-.292.185-.583.274-.873zm-.54 1.691c-.094.279-.19.557-.288.836l1.695.6c.102-.287.202-.575.3-.866zm-.59 1.67l-.15.402-.163.43 1.681.644.168-.441.153-.412zm-.637 1.66l-.096.244-.238.58 1.666.684.242-.59.1-.254zm-.68 1.645l-.043.103-.313.713 1.65.72.317-.722.047-.111zm-.715 1.619l-.344.736-.033.07 1.625.776.037-.078.346-.746zm-.762 1.607l-.306.625-.088.174 1.607.812.092-.183.31-.633zm-.799 1.592l-.27.521-.142.268 1.588.846.147-.276.275-.529zm-.836 1.572l-.232.426-.197.353 1.568.881.203-.361.239-.436zm-.87 1.553l-.194.334-.256.433 1.551.917.262-.442.197-.344zm-.907 1.531l-.15.248-.317.51 1.53.95.322-.518.154-.258zm-.941 1.51l-.106.164-.379.584 1.508.982.385-.591.11-.172zm-.979 1.488l-.05.078-.45.659 1.485 1.015.455-.666.058-.086zm-1.006 1.455l-.486.678-.033.045 1.451 1.066.04-.052.491-.686zm-1.047 1.44l-.433.572-.106.139 1.428 1.095.111-.144.438-.58zm-1.085 1.414a53.94 53.94 0 01-.553.691l1.398 1.133c.191-.236.381-.472.57-.713zm-1.118 1.379c-.188.226-.377.452-.57.677l1.367 1.17c.198-.23.393-.462.588-.697zm-1.152 1.347c-.196.223-.392.444-.59.66l1.33 1.211c.207-.226.41-.453.612-.681zm-1.193 1.315a49.84 49.84 0 01-.61.642l1.297 1.248c.21-.217.421-.438.631-.664zm-1.229 1.273a45.3 45.3 0 01-.627.621l1.25 1.295c.222-.214.439-.43.653-.644zm-1.271 1.237c-.211.199-.428.399-.649.6l1.213 1.33c.223-.204.449-.41.674-.624zm-1.309 1.185a38.1 38.1 0 01-.666.572l1.154 1.381c.236-.197.47-.398.7-.6zm-1.348 1.135c-.231.186-.46.367-.689.543l1.094 1.43c.247-.19.489-.381.724-.57zm-1.396 1.078c-.235.174-.472.344-.711.512l1.033 1.474c.253-.177.503-.358.75-.54zm-1.44 1.012c-.24.161-.484.318-.732.474l.961 1.524c.26-.164.52-.333.777-.506zm-1.48.935c-.248.149-.5.293-.754.434l.873 1.574c.27-.15.539-.305.805-.465zm-1.525.848c-.258.134-.518.265-.778.388l.774 1.625c.282-.134.012-.295.286-.438zM270.22 113.19l-1.793.156c.027.304.056.61.09.916l1.789-.197c-.032-.29-.06-.58-.086-.875zm.19 1.756l-1.786.225c.039.304.08.607.125.91l1.78-.264c-.044-.29-.083-.58-.12-.871zm.257 1.746l-1.775.293c.05.304.104.606.16.906l1.77-.332c-.055-.29-.107-.579-.155-.867zm.326 1.73l-1.761.37.086.416.107.476 1.756-.394-.104-.463zm.39 1.717l-1.743.446.16.632.068.252 1.739-.47-.065-.239zm.462 1.715l-1.73.492c.083.295.17.591.265.889l1.715-.545c-.087-.274-.17-.554-.25-.836zm.521 1.68l-1.707.57.127.381.168.482 1.7-.593-.164-.471zm.586 1.662l-1.681.64.21.557.118.295 1.674-.664-.114-.283zm.655 1.652l-1.664.684c.117.287.239.571.365.853l1.642-.736a27.524 27.524 0 01-.343-.8zm.71 1.611l-1.634.754.12.264.269.563 1.625-.778-.264-.549zm.77 1.588l-1.603.819.207.402.213.408 1.591-.841-.209-.397zm.826 1.557l-1.568.883.297.527.154.266 1.557-.903-.149-.257zm.893 1.54l-1.547.919c.159.267.323.53.488.79l1.518-.968c-.157-.246-.31-.493-.46-.742zm.941 1.491l-1.51.98c.167.257.337.514.514.77l1.48-1.023c-.163-.237-.323-.48-.484-.727zm.994 1.455l-1.468 1.043.205.288.33.45 1.453-1.06-.324-.443zm1.047 1.422l-1.425 1.098.28.365.286.115 1.406-.878-.273-.344zm1.098 1.381l-1.383 1.154.358.428.23.268 1.367-1.17-.222-.26zm1.156 1.35l-1.351 1.187c.206.236.414.463.62.686l1.32-1.227a30.978 30.978 0 01-.589-.646zm1.2 1.297l-1.307 1.238c.214.226.429.446.646.662l1.27-1.275c-.208-.207-.411-.415-.61-.625zm1.245 1.252l-1.26 1.285c.222.216.447.43.675.639l1.218-1.325a28.237 28.237 0 01-.633-.6zm1.291 1.203l-1.207 1.334c.229.206.459.41.696.611l1.168-1.371c-.22-.187-.44-.378-.656-.574zm1.338 1.15l-1.156 1.381c.235.197.475.393.72.586l1.112-1.416c-.226-.178-.45-.363-.676-.55zm1.38 1.1l-1.098 1.424c.242.187.488.373.742.556l1.054-1.459a27.74 27.74 0 01-.699-.521z" />
    </g>
    <path d="M267.67 103.21l-.654.004-.057.086c-2.744.402-4.741 2.904-4.441 5.683.023.216.107.33.158.516l-11.34 7.29c-.986-.747-2.157-1.28-3.512-1.134-2.845.308-4.928 2.898-4.62 5.743.12 1.126.683 2.04 1.384 2.81l-3.443 6.606c-.878.016-1.756.04-2.62.09l-.048.004-.05.006c-.57.078-1.23.192-1.935.552 0 0 0 .002-.002.002-1.012.51-1.696 1.362-2.105 2.244l-.008.016c-.063.14-.137.308-.21.51l-.011.03-.797 2.677-.004.02c-.153.58-.349 1.286-.367 2.078-.018.791.207 1.794.996 2.465l.002.002h.002c.332.28.685.378 1.033.501l-1.302 1.303.898.024-2.76 5.294c-.382-.054-.727-.189-1.142-.144-2.846.307-4.93 2.897-4.623 5.742.307 2.846 2.896 4.93 5.742 4.623 2.845-.307 4.928-2.897 4.62-5.742-.12-1.126-.683-2.04-1.384-2.81l4.104-7.88c.264.004.521.014.789.014.924 0 1.837-.024 2.718-.037l.04-.002.037-.002c1.037-.078 2.52-.22 3.746-1.353h.002c.76-.705 1.112-1.497 1.383-2.176l.015-.037.014-.041c.131-.407.282-.832.418-1.291l.002-.01c.211-.7.36-1.364.504-2.008l.004-.01.002-.012c.137-.668.303-1.472.049-2.383l-.004-.011-.004-.014a2.917 2.917 0 00-1.303-1.652c-.509-.293-.985-.375-1.182-.41-.13-.025-.297-.06-.506-.079l-.027-.002-.027-.002c-.216-.01-.437-.01-.653-.019l2.61-5.01c.382.055.727.19 1.142.145.416-.045.726-.25 1.088-.385l4.514 5.406c-.42.056-.967.022-1.363.172-1.567.592-2.483 1.868-2.98 3.143-.177.444-.303.872-.41 1.275-.073.279-.148.563-.214.867l.008-.039c-.23.915-.955 2.411-.271 4.05l.033.081.043.074c-.018-.03.205.41.584.772l.008.008.01.008c1.127 1.034 2.528.984 3.54.984h4.561c.8 0 1.88.028 2.998-.398v.002a3.985 3.985 0 001.643-1.186l1.668 1.998.32.453.06.002.774.928 2.123 2.543c-.52.902-.875 1.914-.754 3.04.308 2.846 2.897 4.933 5.743 4.626v-.002c2.845-.307 4.93-2.897 4.623-5.742-.308-2.846-2.898-4.929-5.743-4.621-.415.044-.724.25-1.086.384l-1.777-2.129h.807l3.013-11.432h-5.392l-.242.918-1.672 6.338-.91-1.091c.062-.24.136-.502.197-.731l.408-1.543h-.08c.166-.741.26-1.566-.219-2.428v-.004l-.002-.002a2.742 2.742 0 00-1.04-1.03c-.236-.128-.557-.153-.83-.225l.16-.254-2.17-.05c-.37-.007-.732-.004-1.09.003h-.563l-6.246-7.483c.52-.902.874-1.915.752-3.04-.023-.217-.107-.332-.158-.518l11.336-7.29c.986.748 2.159 1.282 3.515 1.136.785-.085 1.44-.398 2.032-.774l15.172 12.213c-.241.66-.407 1.366-.323 2.15.176 1.625 1.146 2.904 2.43 3.706h-.479l-.242.918-2.771 10.514h5.818l-.254.482c-1.54 1.03-2.51 2.821-2.297 4.797.308 2.845 2.897 4.93 5.743 4.623 2.845-.307 4.928-2.897 4.62-5.742-.208-1.932-1.483-3.46-3.152-4.16h1.387l3.217-2.653 1.763 2.652h6.907l-4.1-5.527 7.258-5.904h-7.658l-2.948 2.527-1.675-2.527h-5.559c1.572-1.024 2.573-2.826 2.357-4.824v-.002c-.307-2.846-2.896-4.93-5.742-4.623-.784.084-1.437.398-2.03.773l-15.173-12.213c.24-.66.407-1.366.322-2.15-.288-2.668-2.575-4.668-5.213-4.653zm.025 3.621h.002a1.562 1.562 0 011.586 1.422c.098.903-.51 1.656-1.412 1.754-.902.097-1.656-.51-1.754-1.412-.097-.903.51-1.657 1.412-1.754a1.99 1.99 0 01.166-.01zm-19.316 12.414a1.565 1.565 0 011.59 1.422c.098.902-.511 1.656-1.414 1.754-.902.097-1.656-.51-1.754-1.412-.097-.903.51-1.659 1.412-1.756.056-.006.112-.007.166-.008zm41.938 5.797h.002a1.562 1.562 0 011.588 1.422v.002c.098.902-.51 1.654-1.412 1.752-.903.097-1.658-.508-1.756-1.41a1.561 1.561 0 011.414-1.756c.06-.006.114-.01.164-.01zm-67.486 5.86l-.242.917-2.773 10.514h11.553l1.236-4.687h-6.197l1.78-6.742zm51.098 0l-.242.917-2.773 10.514h5.318l.815-3.086h6.59l1.007-3.822h.37l1.193-4.523zm18.773.884l.723 1.049 2.39 3.465-2.421 1.894-.578-5.353zm-31.77 1.494c.228.01.457.018.676.041l.004.002h.006c.47.047.694.134.76.17.062.034.03.007.062.067.042.074-.056.335-.052.441h-.723c-.057-.12-.031-.229-.125-.336-.199-.228-.404-.29-.607-.385zm-15.902.065c.221.01.437.009.659.02.058.005.141.02.267.044h.006l.006.002c.155.028.297.068.389.121.088.051.117.067.166.219.069.256.037.588-.09 1.209-.144.64-.278 1.236-.455 1.82l-.002.006-.002.004c-.104.354-.24.747-.377 1.17-.252.634-.352.886-.768 1.272-.207.19-.45.273-.689.37.212-.13.44-.191.623-.407.265-.309.466-.7.647-1.172l.023-.063.539-2.04.006-.036c.042-.208.095-.508.076-.848-.029-.64-.477-1.406-1.023-1.691zm-20.3.021h.257l-1.715 6.502h-.257zm44.282 0h.295l-1.714 6.502h-.295zm6.815 0h.219l-.899 3.416h-.002l-.814 3.086h-.22zm13.166 0h.295l-1.715 6.502h-.295zm7.793 0h.597l1.967 2.965-.33.272zm-42.793.112l-.008.008c-.005.003-.007 0-.012.004zm-16.066.039c-.005.003-.005.007-.01.01-.002 0-.007 0-.01.002zm-.102.09c-.28.195-.518.417-.613.54-.29.372-.445.763-.432.733l-.015.04-.016.036c-.158.413-.296.905-.494 1.608l-.008.027-.008.03c-.092.397-.17.756-.209 1.118s-.081.742.137 1.246l.004.012.006.012c.208.456.632.687.998.85l-.063.064-.134-.004c-.777-.05-1.204-.131-1.395-.291v-.002c-.092-.079-.138-.149-.129-.528.01-.377.136-.935.283-1.494l.002-.011.758-2.543c.026-.073.07-.177.125-.301.238-.514.528-.855.979-1.082l.006-.002.004-.002c.07-.036.15-.03.214-.057zm16.014.052c-.322.267-.615.582-.77.905-.184.387-.291.756-.423 1.183l-.006.024-.35 1.322-.004.06v.004c-.017.065-.102.37-.12.756-.02.388-.011.949.423 1.514l.012.016.013.013c.26.317.569.396.862.504-.935-.005-1.533-.072-1.809-.322-.018-.018-.055-.082-.072-.108-.072-.21.112-1.393.383-2.472l.006-.02.004-.02c.05-.228.115-.479.19-.759.093-.357.193-.687.317-1.002l.002-.004v-.002c.325-.83.678-1.271 1.342-1.592zm1.756 1.836l-.611 2.317h-.113c-.095-.007-.128-.015-.202-.022l.002-.008-.002.002c.018-.065.062-.222.075-.416l-.04.238.31-1.166.003-.015c.12-.385.218-.674.277-.797.063-.13.039-.081.043-.084l.01-.008.01-.006c.024-.016.165-.023.239-.035zm-12.81.006h.747l-.443 1.68c-.115.297-.139.344-.195.41l-.01.01c-.081.096-.157.102-.686.147h-.586zm57.71 1.078l2.44 3.29h-.69l-2.03-3.051zm-39.04.67l.234.002c-.02.07-.038.145-.06.213l-.007.024-.006.023c-.08.302-.168.589-.274.867l-.004.01-.002.01c-.154.428-.434.547-.646.77.27-.4.475-.828.545-1.092zm-1.079 2.295c-.073.04-.073.156-.16.19-.056.021-.156.006-.217.023.127-.075.258-.108.377-.213zm29.611.836l.047.443-.207.164zm2.537 5.082a1.558 1.558 0 011.586 1.42c.098.902-.51 1.658-1.412 1.756-.902.097-1.657-.51-1.754-1.412-.097-.902.51-1.659 1.412-1.756.055-.006.112-.007.168-.008zm-20.42 2.205a1.56 1.56 0 011.588 1.42c.098.902-.51 1.659-1.412 1.756-.902.097-1.656-.512-1.754-1.414-.097-.903.51-1.655 1.412-1.752.056-.006.112-.01.166-.01zm-40.834 4.41a1.56 1.56 0 011.586 1.422c.098.903-.51 1.657-1.412 1.754-.902.098-1.657-.51-1.754-1.412-.097-.902.51-1.656 1.412-1.754.06-.006.115-.009.168-.01z" color="#000" fill="#00d782" paint-order="stroke fill markers"/>
    <path d="M267.68 104.44a3.99 3.99 0 00-3.935 4.408c.046.43.207.812.377 1.186l-12.8 8.228c-.828-.94-2.03-1.528-3.364-1.384a3.988 3.988 0 00-3.528 4.385c.126 1.161.761 2.125 1.642 2.764l-3.644 6.992c.432.002.863.01 1.291.022l3.374-6.474c.54.19 1.115.29 1.72.224.606-.066 1.147-.286 1.635-.587l5.719 6.851c.146-.003.276-.008.436-.01l.018-.003c.32 0 .667-.01 1.03-.01l-6.322-7.573c.724-.812 1.14-1.89 1.014-3.051-.046-.43-.207-.813-.377-1.187l12.8-8.228c.827.94 2.029 1.529 3.363 1.385.88-.095 1.616-.524 2.221-1.084l16.602 13.366c-.418.71-.68 1.522-.584 2.402.213 1.974 1.869 3.387 3.796 3.473l.065.598h.924c.085 0 .166.01.242.032l-.081-.754c1.865-.495 3.18-2.23 2.967-4.205a3.989 3.989 0 00-4.383-3.53c-.88.095-1.616.524-2.221 1.084l-16.603-13.366c.418-.71.68-1.522.585-2.401a3.992 3.992 0 00-3.98-3.553zm.009 1.155a2.815 2.815 0 012.821 2.522 2.815 2.815 0 01-2.504 3.112c-1.558.168-2.943-.947-3.112-2.505a2.815 2.815 0 012.795-3.129zm-19.316 12.415a2.817 2.817 0 012.823 2.522 2.817 2.817 0 01-2.506 3.112 2.815 2.815 0 01-3.112-2.505 2.817 2.817 0 012.795-3.13zm41.939 5.797a2.816 2.816 0 012.821 2.523 2.815 2.815 0 01-2.504 3.112 2.816 2.816 0 01-3.113-2.504 2.817 2.817 0 012.796-3.13zm-48.394 8.211c-1.105 0-2.21.05-3.32.114-.553.077-1.005.153-1.548.432-.733.369-1.22.965-1.544 1.664a5.83 5.83 0 00-.174.419l-.783 2.629c-.301 1.143-.645 2.54.237 3.29.571.482 1.333.533 2.12.583 1.021.026 2.031.051 3.06.051.901 0 1.81-.025 2.702-.038 1.01-.076 2.095-.19 3.002-1.029.588-.546.814-1.066 1.078-1.727.139-.431.288-.85.41-1.27.197-.647.34-1.282.485-1.93.132-.648.233-1.22.07-1.803-.292-.966-1.172-1.144-1.524-1.207-.133-.025-.266-.05-.402-.064a78.543 78.543 0 00-3.869-.114zm18.771.012a25.101 25.101 0 00-1.062.002h-2.198c-.355 0-.714.012-1.07.012-1.378.025-2.032.051-2.738.318-1.213.457-1.838 1.333-2.269 2.438a9.923 9.923 0 00-.365 1.143c-.073.28-.144.546-.202.813-.252 1.003-.712 2.362-.33 3.276.052.089.16.305.374.509.705.647 1.705.66 2.708.66h4.559c.8 0 1.727 0 2.56-.318 1.002-.38 1.512-1.156 1.842-2.07.125-.33.225-.66.312-.99.186-.61.33-1.207.488-1.804l-6.562-.012-.463 1.752h3.772c-.077.292-.163.571-.399.838-.402.42-.889.432-1.438.445h-3.39c-.51-.038-1-.064-1.25-.368-.302-.394-.121-1.08-.088-1.207a.871.871 0 00.034-.178l.312-1.18c.263-.852.412-1.322.841-1.601.356-.241.744-.267 1.103-.28h3.848c1.142.051 1.161.267 1.043 1.004h2.807c.247-.838.44-1.575.053-2.273-.241-.432-.64-.75-1.778-.864a12.34 12.34 0 00-1.055-.065zm-36.906.102l-2.366 8.967h9.005l.586-2.223h-6.198l1.78-6.743zm44.283 0l-2.365 8.967h2.845l2.365-8.967zm6.815 0l-2.365 8.967h2.768l.815-3.086h6.59l.54-2.045h-6.59l.468-1.778h6.96l.542-2.057zm13.165 0l-2.365 8.967h2.845l2.365-8.967zm6.396 0l3.05 4.42-5.809 4.547h3.822l3.928-3.239 2.156 3.239h3.797l-3.345-4.509 5.482-4.458h-3.734l-3.66 3.137-2.08-3.137zm-2.827 1.048l-.824 3.128.435 4.034 1.072-.84zm-51.852 1.086h3.836c.698.05 1.201.114 1.23.825a1.92 1.92 0 01-.056.547l-.512 1.943c-.165.431-.266.622-.43.812-.408.483-.954.534-1.552.585h-3.657c-.745-.064-1.176-.165-1.32-.483-.127-.292-.033-.838.142-1.6.197-.699.337-1.181.459-1.499.03-.063.131-.304.283-.495.058-.076.168-.203.379-.33.304-.19.566-.267 1.198-.305zm.454 1l-1.406 2.696c.048.005.08.012.133.016h1.16l1.415-2.713zm23.467 2.991a9.806 9.806 0 01-.219.657 6.85 6.85 0 01-.247.587l1.454 1.742c.006-.048.015-.096.027-.144l.326-1.235zm1.702 3.841l3.786 4.534c-.724.812-1.141 1.89-1.016 3.052a3.99 3.99 0 004.385 3.53 3.99 3.99 0 003.53-4.385 3.988 3.988 0 00-4.385-3.528c-.605.065-1.145.286-1.633.586l-3.161-3.787h-1.456l-.05-.001zm26.03.001l.126 1.175c-1.864.495-3.18 2.23-2.967 4.204a3.99 3.99 0 004.385 3.53 3.988 3.988 0 003.528-4.384c-.213-1.975-1.869-3.388-3.797-3.474l-.113-1.05H291.415zm-54.788.052l-4.056 7.785c-.54-.19-1.116-.29-1.721-.225a3.989 3.989 0 00-3.53 4.384 3.99 3.99 0 004.385 3.53 3.988 3.988 0 003.528-4.385c-.126-1.161-.762-2.126-1.642-2.764l4.323-8.296c-.43-.009-.858-.019-1.287-.03zm55.89 2.075a2.814 2.814 0 012.822 2.522 2.817 2.817 0 01-2.505 3.113 2.817 2.817 0 01-3.113-2.506 2.817 2.817 0 012.796-3.129zm-20.419 2.206a2.814 2.814 0 012.822 2.521 2.817 2.817 0 01-2.505 3.113c-1.558.168-2.943-.948-3.111-2.506a2.816 2.816 0 012.794-3.128zm-40.835 4.41a2.814 2.814 0 012.821 2.522 2.816 2.816 0 01-2.504 3.113 2.817 2.817 0 01-3.113-2.506 2.817 2.817 0 012.796-3.129z" color="#000" fill="#fff" paint-order="stroke fill markers"/>
  </g>
</svg>
