<svg width="471.231" height="301.251" viewBox="0 0 124.68 79.706" xmlns="http://www.w3.org/2000/svg">
  <g fill="#27bf63" color="#000">
    <path d="M117.484 68.044c.09.78.167 1.564.233 2.347l.946-.081a78.428 78.428 0 00-.237-2.373zM29.891 35.9a40.24 40.24 0 00-.61 2.32l.924.214c.176-.76.375-1.518.596-2.266zM31.505 31.385c-.313.736-.606 1.48-.874 2.235l.894.317a38.76 38.76 0 01.852-2.181zM33.629 27.087c-.397.696-.77 1.402-1.124 2.119l.85.42c.346-.701.71-1.392 1.097-2.07zM36.234 23.063a39.885 39.885 0 00-1.36 1.976l.796.513a38.91 38.91 0 011.328-1.927zM39.283 19.364c-.544.587-1.07 1.19-1.579 1.807l.733.603a40.049 40.049 0 011.542-1.764zM42.737 16.038c-.608.52-1.2 1.06-1.776 1.615l.66.682a38.766 38.766 0 011.733-1.576zM46.548 13.132a40.92 40.92 0 00-1.95 1.4l.578.753c.62-.474 1.254-.93 1.902-1.367zM75.427 36.003a96.591 96.591 0 01-.229 2.35l.944.102c.086-.789.161-1.58.228-2.371zM68.741 65.956l-.783.535c.447.655.902 1.305 1.36 1.952l.774-.547a146.48 146.48 0 01-1.35-1.94zM117.584 63.12l-.93.186c.154.768.29 1.541.419 2.317l.936-.155c-.13-.784-.27-1.567-.425-2.349zM66.139 62.013l-.8.506c.423.672.854 1.336 1.29 1.998l.794-.521c-.434-.658-.865-1.318-1.284-1.983zM63.195 58.98c.293.507.59 1.012.892 1.514l.812-.49c-.205-.34-.407-.681-.607-1.024zM33.052 66.486c-.444.65-.895 1.296-1.35 1.94l.774.547c.458-.647.911-1.297 1.359-1.952zM35.654 62.542c-.42.665-.847 1.325-1.281 1.983l.79.521c.437-.661.87-1.326 1.293-1.998zM37.81 58.98c-.3.52-.605 1.039-.916 1.553l.813.49c.408-.676.808-1.357 1.2-2.043zM116.504 58.47l-.293.08v.43h-.554c.18.67.35 1.345.505 2.021l.925-.214a59.29 59.29 0 00-.583-2.318zM53.527 35.19l-.906.281c.235.757.477 1.512.722 2.266l.9-.293c-.243-.75-.482-1.502-.716-2.254zM48.796 35.19c-.234.752-.472 1.504-.717 2.254l.903.293c.245-.754.485-1.509.72-2.266zM102.084 34.057l-.68.662a73.345 73.345 0 011.617 1.713l.7-.64a74.2 74.2 0 00-1.637-1.734zM75.698 31.296a77.471 77.471 0 01-.103 2.356l.947.055c.047-.794.08-1.588.103-2.383zM76.644 26.554l-.947.03c.025.784.037 1.571.037 2.357l.947-.002c0-.794-.012-1.59-.037-2.385zM76.366 21.267l-.945.08c.067.784.125 1.568.17 2.352l.947-.054a86.628 86.628 0 00-.172-2.378zM75.851 16.531l-.942.123c.103.781.198 1.562.284 2.344l.941-.101c-.086-.79-.18-1.579-.283-2.366zM75.152 11.824l-.936.157c.13.775.251 1.554.368 2.334l.937-.139c-.117-.783-.238-1.568-.369-2.352zM98.204 31.43c.56.551 1.112 1.112 1.655 1.68l.685-.657a78.498 78.498 0 00-1.675-1.698zM50.669 10.681c-.71.368-1.41.758-2.097 1.167l.486.815c.67-.4 1.353-.78 2.047-1.139zM55.044 8.723c-.747.283-1.488.587-2.217.915l.389.866c.712-.32 1.433-.618 2.164-.895zM59.618 7.282c-.776.195-1.546.412-2.309.654l.287.904c.744-.235 1.495-.449 2.253-.64zM63.795 6.377c-.794.104-1.583.234-2.367.384l.18.932a39.192 39.192 0 012.311-.376zM68.575 6.016c-.8.013-1.6.052-2.395.111l.071.946c.78-.059 1.56-.096 2.34-.109zM105.304 37.574l-.72.619c.512.595 1.013 1.2 1.5 1.813l.745-.59a61.138 61.138 0 00-1.525-1.842z" />
  </g>
  <g fill="#23292d" color="#000">
    <path d="M28.042 58.98v10.655c-2.101.308-3.727 2.123-3.727 4.307 0 2.399 1.96 4.356 4.359 4.356 2.4 0 4.357-1.957 4.357-4.356 0-2.184-1.624-3.999-3.725-4.307V58.979zm.632 11.867a3.084 3.084 0 013.092 3.095 3.083 3.083 0 01-3.092 3.092 3.084 3.084 0 01-3.095-3.092 3.085 3.085 0 013.095-3.095zM21.624 57.611L8.783 70.453a4.326 4.326 0 00-2.596-.868c-2.4 0-4.357 1.96-4.357 4.358 0 2.4 1.957 4.357 4.357 4.357 2.399 0 4.358-1.957 4.358-4.357 0-.972-.326-1.869-.868-2.596l12.366-12.366h-.419zM6.186 70.85a3.085 3.085 0 013.095 3.094 3.084 3.084 0 01-3.095 3.093 3.082 3.082 0 01-3.092-3.093 3.084 3.084 0 013.092-3.094zM73.015 58.98v10.655c-2.101.308-3.726 2.123-3.726 4.307 0 2.399 1.959 4.356 4.358 4.356s4.359-1.957 4.359-4.356c0-2.184-1.626-3.999-3.727-4.307V58.979zm.632 11.867a3.084 3.084 0 013.092 3.095c0 1.716-1.376 3.092-3.092 3.092s-3.093-1.376-3.093-3.092a3.084 3.084 0 013.093-3.095zM95.502 58.98v10.655c-2.1.309-3.725 2.123-3.725 4.307 0 2.399 1.959 4.356 4.358 4.356 2.4 0 4.357-1.957 4.357-4.356 0-2.184-1.624-3.999-3.725-4.307V58.979zm.633 11.867a3.084 3.084 0 013.093 3.095 3.082 3.082 0 01-3.093 3.092 3.084 3.084 0 01-3.094-3.092 3.085 3.085 0 013.094-3.095zM102.764 58.98l12.367 12.366a4.328 4.328 0 00-.867 2.596c0 2.399 1.958 4.357 4.357 4.357 2.4 0 4.359-1.958 4.359-4.357 0-2.4-1.96-4.359-4.359-4.359l-.027.002-.942.111a4.336 4.336 0 00-1.627.756l-11.472-11.473zm15.857 11.867a3.085 3.085 0 013.094 3.095 3.083 3.083 0 01-3.094 3.092 3.082 3.082 0 01-3.092-3.092 3.084 3.084 0 013.092-3.095zM73.647 2.122c-2.399 0-4.358 1.96-4.358 4.359 0 .972.326 1.869.868 2.596L53.755 25.478a4.326 4.326 0 00-2.595-.868c-2.4 0-4.357 1.96-4.357 4.359 0 .972.325 1.869.867 2.595l-8.689 8.689h1.788l7.795-7.795a4.325 4.325 0 002.596.868c.972 0 1.87-.326 2.596-.868l7.795 7.795h1.788l-8.689-8.69a4.324 4.324 0 00.868-2.594c0-.973-.326-1.87-.868-2.597l16.4-16.4a4.327 4.327 0 002.597.867c.973 0 1.87-.325 2.596-.868l16.402 16.401a4.327 4.327 0 00-.868 2.597c0 2.183 1.624 3.996 3.724 4.305v6.978h1.266v-6.978a4.338 4.338 0 002.179-.984l.65-.69a4.326 4.326 0 00.896-2.631c0-2.4-1.958-4.359-4.357-4.359-.973 0-1.87.326-2.596.868L77.137 9.077a4.326 4.326 0 00.868-2.596c0-2.4-1.959-4.359-4.358-4.359zm0 1.266a3.083 3.083 0 013.093 3.093c0 1.716-1.377 3.092-3.093 3.092s-3.092-1.376-3.092-3.092a3.083 3.083 0 013.092-3.093zM51.16 25.874a3.085 3.085 0 013.093 3.094 3.083 3.083 0 01-3.093 3.093 3.082 3.082 0 01-3.093-3.093 3.084 3.084 0 013.093-3.094zm44.976 0a3.084 3.084 0 013.092 3.094 3.082 3.082 0 01-3.092 3.093 3.084 3.084 0 01-3.095-3.093 3.085 3.085 0 013.095-3.094z" />
    <path d="M54.993 39.685l-.897.307.092.26h1.006c-.066-.189-.136-.377-.201-.567zM47.329 39.685c-.065.19-.134.378-.2.568h1.005l.092-.261z" />
    <path d="M21.319 39.443v19.73h96.912v-19.73zm1.447 1.446h94.018v16.84H22.766z" />
  </g>
  <g transform="matrix(1 0 -.26382 1 26.748 -2.537)" fill="#27bf63" >
    <path d="M14.821 47.094v8.966h9.004v-2.222h-6.197v-6.744zM26.944 52.237c0 1.143.025 2.54 1.105 3.29.698.482 1.473.533 2.273.583 1.029.026 2.045.051 3.074.051.901 0 1.803-.025 2.692-.038.99-.076 2.045-.19 2.73-1.028.445-.547.534-1.067.623-1.728.025-.431.063-.85.076-1.27.025-.647 0-1.282-.025-1.93-.038-.648-.09-1.22-.407-1.804-.546-.965-1.473-1.142-1.841-1.206-.14-.025-.28-.05-.42-.063a80.383 80.383 0 00-3.898-.115c-1.105 0-2.197.051-3.29.115-.533.076-.965.152-1.435.431-.635.369-.965.966-1.105 1.664-.025.14-.05.28-.063.42zm4.521 1.702c-.762-.064-1.219-.165-1.448-.483-.203-.292-.254-.838-.279-1.6.013-.699.025-1.181.064-1.499.012-.063.05-.304.152-.495a.882.882 0 01.292-.33c.254-.19.495-.267 1.118-.305h3.835c.711.05 1.232.114 1.448.826.063.19.076.343.089.546v1.943c-.051.432-.102.622-.216.813-.28.482-.813.533-1.397.584zM55.324 50.192c.025-.838.025-1.575-.546-2.273-.356-.432-.838-.75-2.007-.864-.724-.076-1.422-.076-2.133-.063H48.44c-.356 0-.712.012-1.067.012-1.372.026-2.02.051-2.655.318-1.092.457-1.485 1.333-1.625 2.438-.05.381-.064.762-.064 1.143 0 .28 0 .546.013.813.013 1.003-.089 2.362.534 3.277.076.089.24.304.508.508.876.647 1.88.66 2.882.66h4.56c.8 0 1.727 0 2.476-.317.902-.381 1.207-1.156 1.296-2.07.038-.33.05-.661.05-.991.026-.61.013-1.207.013-1.804l-6.566-.012v1.752h3.772c0 .292-.013.572-.178.839-.292.419-.774.431-1.32.444h-3.391c-.521-.038-1.016-.063-1.347-.368-.406-.394-.406-1.08-.406-1.207 0-.063 0-.114-.013-.178v-1.18c.038-.852.064-1.321.42-1.6.292-.242.673-.268 1.028-.28h3.848c1.156.05 1.232.266 1.308 1.003zM59.104 47.094v8.966h2.845v-8.966zM65.919 47.094v8.966h2.769v-3.086h6.59V50.93h-6.59v-1.778h6.96v-2.057zM79.084 47.094v8.966h2.845v-8.966zM89.697 51.513l-4.61 4.547h3.823l3.073-3.239 3.01 3.239h3.797l-4.534-4.509 4.306-4.458h-3.734l-2.832 3.137-2.909-3.137h-3.606z"/>
  </g>
</svg>
