<svg width="325.44" height="201.101" viewBox="0 0 86.106 53.208" xmlns="http://www.w3.org/2000/svg">
  <path d="M46.261 0a3.99 3.99 0 00-3.935 4.408c.047.43.207.812.377 1.186l-12.8 8.229c-.827-.94-2.029-1.529-3.363-1.385a3.988 3.988 0 00-3.528 4.385c.125 1.161.76 2.126 1.641 2.764L21.01 26.58c.433.002.863.01 1.292.021l3.373-6.473c.54.19 1.116.289 1.721.223.605-.065 1.147-.286 1.634-.586l5.72 6.85c.145-.002.275-.007.436-.01a.877 1.14 48.757 01.018-.002c.319 0 .666-.01 1.03-.011l-6.322-7.573c.723-.811 1.14-1.89 1.014-3.05-.047-.43-.208-.813-.377-1.187l12.8-8.228c.827.94 2.029 1.528 3.363 1.384.88-.095 1.615-.524 2.22-1.084L65.535 20.22c-.418.71-.68 1.522-.584 2.402.213 1.974 1.869 3.387 3.796 3.473l.065.598h.924a.877 1.14 48.757 01.242.032l-.081-.754c1.865-.495 3.18-2.23 2.967-4.205a3.989 3.989 0 00-4.383-3.53c-.88.095-1.616.524-2.221 1.084L49.656 5.955c.418-.711.68-1.523.585-2.402A3.992 3.992 0 0046.26 0zm.01 1.156a2.815 2.815 0 012.821 2.522 2.815 2.815 0 01-2.505 3.111 2.815 2.815 0 01-3.111-2.505 2.815 2.815 0 012.794-3.128zM26.955 13.569a2.817 2.817 0 012.823 2.523 2.816 2.816 0 01-2.507 3.112 2.815 2.815 0 01-3.111-2.505 2.817 2.817 0 012.795-3.13zm41.938 5.798a2.816 2.816 0 012.822 2.523 2.815 2.815 0 01-2.505 3.112 2.816 2.816 0 01-3.113-2.504 2.818 2.818 0 012.796-3.13zM20.5 27.578c-1.105 0-2.21.05-3.32.114-.553.077-1.005.153-1.549.432-.732.369-1.22.965-1.543 1.664-.062.14-.125.28-.174.419l-.783 2.629c-.301 1.143-.645 2.54.237 3.29.571.482 1.333.533 2.12.583 1.021.026 2.03.051 3.06.051.901 0 1.81-.025 2.702-.038 1.01-.076 2.095-.19 3.002-1.029.588-.546.814-1.066 1.077-1.727.14-.431.289-.85.412-1.27.196-.647.338-1.282.483-1.93.133-.648.234-1.22.07-1.803-.291-.965-1.172-1.143-1.523-1.207-.133-.025-.266-.05-.402-.064a78.544 78.544 0 00-3.87-.114zm18.77.012a26.304 26.304 0 00-1.062.001H36.01c-.356 0-.715.013-1.07.013-1.379.025-2.033.05-2.738.317-1.213.458-1.838 1.334-2.27 2.438a9.925 9.925 0 00-.364 1.143c-.074.28-.145.547-.202.813-.252 1.004-.712 2.362-.331 3.277.053.089.161.305.374.508.706.648 1.705.66 2.708.66h4.56c.8 0 1.727 0 2.56-.317 1.002-.381 1.511-1.156 1.841-2.07.126-.33.225-.66.313-.991.186-.61.33-1.207.488-1.803l-6.563-.013-.462 1.752h3.772c-.077.293-.164.572-.4.839-.402.419-.888.432-1.437.445h-3.39c-.511-.039-1-.064-1.25-.369-.302-.394-.121-1.08-.088-1.207a.871.871 0 00.034-.177l.312-1.181c.262-.851.412-1.321.841-1.6.356-.242.744-.267 1.103-.28h3.848c1.142.05 1.161.267 1.043 1.003h2.807c.246-.838.44-1.574.053-2.273-.242-.432-.64-.75-1.779-.864a12.356 12.356 0 00-1.054-.064zm-36.906.102L-.002 36.66h9.004l.586-2.223H3.39l1.78-6.743zm44.283 0l-2.365 8.967h2.845l2.365-8.967zm6.815 0l-2.365 8.967h2.768l.815-3.086h6.59l.54-2.045h-6.591l.469-1.778h6.96l.542-2.058zm13.165 0l-2.365 8.967h2.845l2.365-8.967zm6.396 0l3.05 4.42-5.81 4.547h3.823l3.928-3.239 2.156 3.239h3.797L80.62 32.15l5.482-4.458h-3.734l-3.66 3.137-2.08-3.137zm-2.827 1.048l-.825 3.128.436 4.034 1.072-.84zm-51.852 1.086h3.835c.698.05 1.202.114 1.23.825a1.92 1.92 0 01-.055.547l-.513 1.943c-.165.431-.266.622-.43.812-.407.483-.954.534-1.551.585H17.2c-.745-.064-1.175-.165-1.32-.483-.126-.292-.033-.838.143-1.6.197-.699.337-1.181.459-1.499.029-.063.13-.304.283-.495.058-.076.167-.203.378-.33.305-.19.566-.267 1.199-.305zm.454 1l-1.406 2.696c.047.005.08.012.132.016h1.161l1.414-2.713zm23.466 2.991a9.807 9.807 0 01-.218.657 6.85 6.85 0 01-.247.587l1.453 1.742a.877 1.14 48.757 01.028-.144l.326-1.235zm1.703 3.841l3.785 4.534c-.724.812-1.14 1.89-1.015 3.052a3.99 3.99 0 004.384 3.53 3.99 3.99 0 003.53-4.385 3.988 3.988 0 00-4.384-3.528c-.605.065-1.146.285-1.633.586L45.47 37.66h-1.456a.877 1.14 48.757 01-.05-.002zm26.028.001l.127 1.175c-1.864.495-3.18 2.23-2.967 4.204a3.99 3.99 0 004.385 3.53 3.988 3.988 0 003.528-4.384c-.213-1.975-1.869-3.388-3.797-3.474l-.113-1.05h-1.16a.877 1.14 48.757 01-.003 0zm-54.786.051l-4.057 7.785c-.54-.189-1.116-.29-1.72-.224a3.989 3.989 0 00-3.53 4.384 3.99 3.99 0 004.384 3.53 3.988 3.988 0 003.528-4.385c-.125-1.161-.761-2.126-1.642-2.764l4.323-8.296c-.43-.01-.858-.019-1.286-.03zm55.89 2.076a2.814 2.814 0 012.821 2.522 2.817 2.817 0 01-2.505 3.113 2.818 2.818 0 01-3.113-2.506 2.817 2.817 0 012.796-3.129zm-20.42 2.206a2.814 2.814 0 012.822 2.521 2.817 2.817 0 01-2.504 3.113 2.817 2.817 0 01-3.112-2.506 2.815 2.815 0 012.795-3.128zm-40.834 4.41a2.814 2.814 0 012.82 2.522 2.816 2.816 0 01-2.504 3.113 2.818 2.818 0 01-3.113-2.506 2.816 2.816 0 012.796-3.129z" fill="#25ce72" />
</svg>
