<svg id="svg8" width="392.39" height="246.61" version="1.1" viewBox="0 0 103.82 65.25" xmlns="http://www.w3.org/2000/svg">
  <g id="layer5" transform="translate(-35.66 -6.97)">
    <g fill="#fff" stroke-miterlimit="10" stroke-width="1.47" transform="matrix(.68038 0 0 -.68038 97.22 10.66)">
      <g id="g2311">
        <g id="g2305">
          <path id="path2303" d="M4.7 0a4.7 4.7 0 11-9.4 0 4.7 4.7 0 019.4 0z" fill="#fff" stroke="#000" stroke-miterlimit="10" stroke-width="1.47"/>
        </g>
      </g>
      <g id="g2323">
        <g id="g2315">
          <path id="path2313" d="M4.7-85.04a4.7 4.7 0 11-9.4 0 4.7 4.7 0 019.4 0z" fill="#fff" stroke="#000" stroke-miterlimit="10" stroke-width="1.47"/>
        </g>
      </g>
      <g id="g2335">
        <g id="g2327">
          <path id="path2325" d="M-23.65-28.35a4.7 4.7 0 11-9.4 0 4.7 4.7 0 019.4 0z" fill="#fff" stroke="#000" stroke-miterlimit="10" stroke-width="1.47"/>
        </g>
      </g>
    </g>
    <g id="g2347" transform="matrix(.68038 0 0 -.68038 97.22 10.66)">
      <g id="g2339">
        <path id="path2337" d="M-52-56.7a4.7 4.7 0 11-9.39 0 4.7 4.7 0 019.4 0z" fill="none" stroke="#000" stroke-miterlimit="10" stroke-width=".8"/>
      </g>
    </g>
    <g id="g2359" transform="matrix(.68038 0 0 -.68038 97.22 10.66)">
      <g id="g2351">
        <path id="path2349" d="M4.7-56.7a4.7 4.7 0 11-9.4 0 4.7 4.7 0 019.4 0z" fill="none" stroke="#000" stroke-miterlimit="10" stroke-width=".8"/>
      </g>
    </g>
    <g id="g2371" transform="matrix(.68038 0 0 -.68038 97.22 10.66)" fill="#fff" stroke-miterlimit="10" stroke-width="1.47">
      <g id="g2363">
        <path id="path2361" d="M-52-85.04a4.7 4.7 0 11-9.39 0 4.7 4.7 0 019.4 0z" fill="#fff" stroke="#000" stroke-miterlimit="10" stroke-width="1.47"/>
      </g>
    </g>
    <g id="g2383" transform="matrix(.68038 0 0 -.68038 97.22 10.66)" fill="#fff" stroke-miterlimit="10" stroke-width="1.47">
      <g id="g2375">
        <path id="path2373" d="M33.04-28.35a4.7 4.7 0 11-9.39 0 4.7 4.7 0 019.4 0z" fill="#fff" stroke="#000" stroke-miterlimit="10" stroke-width="1.47"/>
      </g>
    </g>
    <g id="g2395" transform="matrix(.68038 0 0 -.68038 97.22 10.66)">
      <g id="g2387">
        <path id="path2385" d="M33.04-56.7a4.7 4.7 0 11-9.39 0 4.7 4.7 0 019.4 0z" fill="none" stroke="#000" stroke-miterlimit="10" stroke-width=".8"/>
      </g>
    </g>
    <g fill="#fff" stroke-miterlimit="10" stroke-width="1.47" transform="matrix(.68038 0 0 -.68038 97.22 10.66)">
      <g id="g2407">
        <g id="g2399">
          <path id="path2397" d="M33.04-85.04a4.7 4.7 0 11-9.39 0 4.7 4.7 0 019.4 0z" fill="#fff" stroke="#000" stroke-miterlimit="10" stroke-width="1.47"/>
        </g>
      </g>
      <g id="g2419">
        <g id="g2411">
          <path id="path2409" d="M-80.34-85.04a4.7 4.7 0 11-9.4 0 4.7 4.7 0 019.4 0z" fill="#fff" stroke="#000" stroke-miterlimit="10" stroke-width="1.47"/>
        </g>
      </g>
      <g id="g2431">
        <g id="g2423">
          <path id="path2421" d="M61.39-85.04a4.7 4.7 0 11-9.4 0 4.7 4.7 0 019.4 0z" fill="#fff" stroke="#000" stroke-miterlimit="10" stroke-width="1.47"/>
        </g>
      </g>
    </g>
    <g id="g2435" transform="matrix(.68038 0 0 -.68038 97.22 10.66)">
      <path id="path2433" d="M-3.6-3.6l-21.14-21.14m0-7.21L-3.6-53.09M0-61.8v-18.16" fill="none" stroke="#000" stroke-miterlimit="10" stroke-width="1.59"/>
    </g>
    <g id="g2439" transform="matrix(.68038 0 0 -.68038 97.22 10.66)">
      <path id="path2437" d="M3.6-3.6l21.14-21.14m3.6-8.7V-51.6m0-10.19v-18.16" fill="none" stroke="#000" stroke-miterlimit="10" stroke-width="1.59"/>
    </g>
    <g id="g2445" transform="matrix(.68038 0 0 -.68038 97.22 10.66)">
      <path id="path2443" d="M-31.95-31.95l-21.14-21.14m-3.6-8.7v-18.16" fill="none" stroke="#000" stroke-miterlimit="10" stroke-width="1.59"/>
    </g>
    <g id="g2449" transform="matrix(.68038 0 0 -.68038 97.22 10.66)">
      <path id="path2447" d="M-60.3-60.3l-21.14-21.14" fill="none" stroke="#000" stroke-miterlimit="10" stroke-width="1.59"/>
    </g>
    <g id="g2453" transform="matrix(.68038 0 0 -.68038 97.22 10.66)">
      <path id="path2451" d="M31.95-60.3l21.14-21.14" fill="none" stroke="#000" stroke-miterlimit="10" stroke-width="1.59"/>
    </g>
    <g id="g2457" transform="matrix(.68038 0 0 -.68038 97.22 10.66)">
      <path id="path2455" d="M31.95-81.44a35.03 35.03 0 010 49.49" fill="none" stroke="#000" stroke-dasharray="2.98883, 2.98883" stroke-miterlimit="10" stroke-width=".8"/>
    </g>
    <path id="path2459" d="M58.65 45.77a35.04 35.04 0 0135.1-35.1" fill="none" stroke="#000" stroke-dasharray="2.03354, 2.03354" stroke-miterlimit="10" stroke-width=".54"/>
    <g id="g2465" transform="matrix(.68038 0 0 -.68038 97.22 10.66)">
      <path id="path2463" d="M-53.66-80.95c12.44 16.77 17.9 27.7 23.86 47.72" fill="none" stroke="#000" stroke-dasharray="2.98883, 2.98883" stroke-miterlimit="10" stroke-width=".8"/>
    </g>
    <g id="g2469" transform="matrix(.68038 0 0 -.68038 97.22 10.66)">
      <path id="path2467" d="M-3.03-80.95c-12.44 16.77-17.91 27.7-23.86 47.72" fill="none" stroke="#000" stroke-dasharray="2.98883, 2.98883" stroke-miterlimit="10" stroke-width=".8"/>
    </g>
    <path id="path2471" d="M97.82 45.82c2.15-12.2 2.15-19.55 0-31.75" fill="none" stroke="#000" stroke-dasharray="2.03354, 2.03354" stroke-miterlimit="10" stroke-width=".54"/>
    <path id="rect1466-2" fill="none" paint-order="stroke fill markers" d="M44.06 37.24h82.61v21.19H44.06z"/>
    <path id="rect1470-5" fill="#fff" stroke="#111" stroke-dashoffset="1.08" stroke-width="1.56" paint-order="normal" d="M43 38.65h94.59v18.73H43z"/>
    <path id="path2499" transform="matrix(1 0 -.26382 1 47.55 -3.96)" d="M32.93 46.98c-1.1 0-2.2.05-3.3.11-.53.08-.96.16-1.43.44-.63.36-.96.96-1.1 1.66l-.07.42-.08 2.63c0 1.14.02 2.54 1.1 3.29.7.48 1.47.53 2.27.58 1.03.03 2.05.05 3.08.05.9 0 1.8-.02 2.69-.04.99-.07 2.04-.19 2.73-1.03.44-.54.53-1.06.62-1.72.03-.43.07-.85.08-1.27.02-.65 0-1.28-.03-1.93a4.03 4.03 0 00-.4-1.8 2.48 2.48 0 00-1.85-1.21 4.79 4.79 0 00-.42-.07c-1.3-.06-2.6-.11-3.9-.11zm15.51.01l-1.07.01c-1.37.03-2.02.06-2.65.32-1.1.46-1.49 1.34-1.63 2.44-.05.38-.06.76-.06 1.14l.01.82c.02 1-.09 2.36.54 3.27.07.1.24.3.5.51.88.65 1.88.66 2.89.66h4.56c.8 0 1.73 0 2.47-.32.9-.38 1.21-1.15 1.3-2.07.04-.33.05-.66.05-.99.03-.6.01-1.2.01-1.8l-6.56-.01v1.75h3.77c0 .3-.01.57-.18.84-.3.42-.77.43-1.32.44h-3.4c-.51-.04-1-.06-1.34-.36-.4-.4-.4-1.08-.4-1.21 0-.07 0-.12-.02-.18v-1.18c.04-.85.07-1.32.42-1.6.3-.24.68-.27 1.03-.28h3.85c1.16.05 1.23.27 1.3 1h2.81c.03-.83.03-1.57-.54-2.27-.36-.43-.84-.75-2-.86-.73-.08-1.43-.08-2.14-.07zm-33.62.1v8.97h9v-2.22h-6.2v-6.75zm44.28 0v8.97h2.85V47.1zm6.82 0v8.97h2.77v-3.08h6.59v-2.05h-6.6v-1.78h6.97V47.1zm13.16 0v8.97h2.85V47.1zm6.4 0l4.22 4.42-4.61 4.55h3.82l3.07-3.24L95 56.06h3.8l-4.53-4.5 4.3-4.47h-3.73L92 50.23l-2.91-3.14zm-54.12 2.14h3.84c.71.05 1.23.11 1.45.82.06.2.07.35.09.55v1.94c-.05.44-.1.63-.22.82-.28.48-.81.53-1.4.58h-3.65c-.77-.06-1.22-.16-1.45-.48-.2-.3-.26-.84-.28-1.6.01-.7.03-1.18.06-1.5.02-.07.05-.3.16-.5.03-.07.1-.2.29-.33.25-.19.5-.26 1.11-.3z" style="white-space:pre" paint-order="stroke fill markers"/>
  </g>
</svg>
