<svg width="417.373" height="262.443" viewBox="0 0 110.43 69.438" xmlns="http://www.w3.org/2000/svg">
  <path fill="none" paint-order="stroke fill markers" d="M15.595 30.877h82.608v21.186H15.595z"/>
  <path d="M68.86 3.973a3.396 3.396 0 10-6.79 0 3.396 3.396 0 006.79 0zM68.86 65.466a3.396 3.396 0 10-6.79 0 3.396 3.396 0 006.79 0zM48.363 24.47a3.396 3.396 0 10-6.791 0 3.396 3.396 0 006.791 0zM27.865 44.968a3.396 3.396 0 10-6.791 0 3.396 3.396 0 006.791 0zM68.86 44.968a3.396 3.396 0 10-6.79 0 3.396 3.396 0 006.79 0zM27.865 65.466a3.396 3.396 0 10-6.791 0 3.396 3.396 0 006.791 0zM89.359 24.47a3.396 3.396 0 10-6.792 0 3.396 3.396 0 006.792 0zM89.359 44.968a3.396 3.396 0 10-6.792 0 3.396 3.396 0 006.792 0zM89.359 65.466a3.396 3.396 0 10-6.792 0 3.396 3.396 0 006.792 0zM7.367 65.466a3.396 3.396 0 10-6.791 0 3.396 3.396 0 006.791 0zM109.857 65.466a3.396 3.396 0 10-6.792 0 3.396 3.396 0 006.792 0zM62.656 6.781l-14.88 14.88m0 5.618l14.88 14.88m2.809 6.781v12.554M68.274 6.781l14.88 14.88m2.809 6.782v12.553m0 7.945v12.553M42.158 27.28l-14.88 14.88m-2.809 6.78v12.554M21.66 47.777L6.78 62.657M88.772 47.777l14.88 14.88" fill="none" stroke="#000" stroke-miterlimit="10" stroke-width="1.15263734"/>
  <path d="M106.007 61.52C104.29 46.6 99.753 37.527 88.847 27.2M24.469 40.996c0-20.5 16.523-37.023 37.023-37.023M26.836 62.275c8.863-11.95 12.757-19.737 16.999-33.998M63.099 62.275c-8.863-11.95-12.757-19.737-17-33.998M66.155 41.056c2.246-12.74 2.246-20.432 0-33.171" fill="none" stroke="#000" stroke-dasharray="2.98883, 2.98883" stroke-miterlimit="10" stroke-width=".86483956"/>
  <path fill="#fff" stroke="#111" stroke-dashoffset="1.077" stroke-width="1.558" d="M14.536 32.278h94.59v18.728h-94.59z"/>
  <g transform="matrix(1 0 -.26382 1 19.086 -10.326)" style="shape-inside:url(#rect12-0-3-0-7-3);white-space:pre" aria-label="LOGIFIX" paint-order="stroke fill markers">
    <path d="M14.821 47.094v8.966h9.004v-2.222h-6.197v-6.744zM26.944 52.237c0 1.143.025 2.54 1.105 3.29.698.482 1.473.533 2.273.583 1.029.026 2.045.051 3.074.051.901 0 1.803-.025 2.692-.038.99-.076 2.045-.19 2.73-1.028.445-.547.534-1.067.623-1.728.025-.431.063-.85.076-1.27.025-.647 0-1.282-.025-1.93-.038-.648-.09-1.22-.407-1.804-.546-.965-1.473-1.142-1.841-1.206-.14-.025-.28-.05-.42-.063a80.383 80.383 0 00-3.898-.115c-1.105 0-2.197.051-3.29.115-.533.076-.965.152-1.435.431-.635.369-.965.966-1.105 1.664-.025.14-.05.28-.063.42zm4.521 1.702c-.762-.064-1.219-.165-1.448-.483-.203-.292-.254-.838-.279-1.6.013-.699.025-1.181.064-1.499.012-.063.05-.304.152-.495a.882.882 0 01.292-.33c.254-.19.495-.267 1.118-.305h3.835c.711.05 1.232.114 1.448.826.063.19.076.343.089.546v1.943c-.051.432-.102.622-.216.813-.28.482-.813.533-1.397.584zM55.324 50.192c.025-.838.025-1.575-.546-2.273-.356-.432-.838-.75-2.007-.864-.724-.076-1.422-.076-2.133-.063H48.44c-.356 0-.712.012-1.067.012-1.372.026-2.02.051-2.655.318-1.092.457-1.485 1.333-1.625 2.438-.05.381-.064.762-.064 1.143 0 .28 0 .546.013.813.013 1.003-.089 2.362.534 3.277.076.089.24.304.508.508.876.647 1.88.66 2.882.66h4.56c.8 0 1.727 0 2.476-.317.902-.381 1.207-1.156 1.296-2.07.038-.33.05-.661.05-.991.026-.61.013-1.207.013-1.804l-6.566-.012v1.752h3.772c0 .292-.013.572-.178.839-.292.419-.774.431-1.32.444h-3.391c-.521-.038-1.016-.063-1.347-.368-.406-.394-.406-1.08-.406-1.207 0-.063 0-.114-.013-.178v-1.18c.038-.852.064-1.321.42-1.6.292-.242.673-.268 1.028-.28h3.848c1.156.05 1.232.266 1.308 1.003zM59.104 47.094v8.966h2.845v-8.966zM65.919 47.094v8.966h2.769v-3.086h6.59V50.93h-6.59v-1.778h6.96v-2.057zM79.084 47.094v8.966h2.845v-8.966zM89.697 51.513l-4.61 4.547h3.823l3.073-3.239 3.01 3.239h3.797l-4.534-4.509 4.306-4.458h-3.734l-2.832 3.137-2.909-3.137h-3.606z"/>
  </g>
</svg>
